# xmcd
#
# Track frame offsets: 
#        150
#        27625
#        43115
#        71114
#        98738
#        122259
#        153747
#        176192
#        210530
#
# Disc length: 3139 seconds
#
# Revision: 2
# Processed by: cddbd v1.5.2PL0 Copyright (c) Steve Scherf et al.
# Submitted via: ExactAudioCopyFreeDBPlugin 1.0
#
DISCID=7f0c4109
DTITLE=Larry Miller - Soldier Of The Line
DYEAR=2014
DGENRE=Blues
TTITLE0=one fine day
TTITLE1=soldier of the line
TTITLE2=failed again
TTITLE3=the power you have
TTITLE4=our time is coming
TTITLE5=come hell or high water
TTITLE6=I fight myself
TTITLE7=Bathsheba V2
TTITLE8=mississippi mama
EXTD=
EXTT0=
EXTT1=
EXTT2=
EXTT3=
EXTT4=
EXTT5=
EXTT6=
EXTT7=
EXTT8=
PLAYORDER=
